%FSLAX45Y45*%
G04 Gerber Fmt 4.5, Leading zero omitted, Abs format (unit mm)*
G04 Created by KiCad (PCBNEW 5.1.10) date 2021-07-31 20:31:48*
%MOMM*%
%LPD*%
G01*
G04 APERTURE LIST*
%TA.AperFunction,Profile*%
%ADD10C,0.200000*%
%TD*%
%ADD11C,0.200000*%
%ADD12C,0.300000*%
G04 APERTURE END LIST*
D10*
X12976700Y-11861300D02*
G75*
G03*
X12976700Y-11861300I-200000J0D01*
G01*
X12976700Y-7300500D02*
G75*
G03*
X12976700Y-7300500I-200000J0D01*
G01*
X17537500Y-7300500D02*
G75*
G03*
X17537500Y-7300500I-200000J0D01*
G01*
X17537500Y-11861300D02*
G75*
G03*
X17537500Y-11861300I-200000J0D01*
G01*
X13057100Y-5580900D02*
X11057100Y-7580900D01*
X11057100Y-7580900D02*
X11057100Y-11580900D01*
X11057100Y-11580900D02*
X13057100Y-13580900D01*
X17057100Y-13580900D02*
X24057100Y-11705200D01*
X24057100Y-11705200D02*
X24057100Y-7456500D01*
X24057100Y-7456500D02*
X17057100Y-5580900D01*
X17057100Y-5580900D02*
X13057100Y-5580900D01*
X13057100Y-13580900D02*
X17057100Y-13580900D01*
D11*
D12*
X11333528Y-14056614D02*
X11333528Y-13756614D01*
X11404957Y-13756614D01*
X11447814Y-13770900D01*
X11476386Y-13799471D01*
X11490671Y-13828043D01*
X11504957Y-13885186D01*
X11504957Y-13928043D01*
X11490671Y-13985186D01*
X11476386Y-14013757D01*
X11447814Y-14042329D01*
X11404957Y-14056614D01*
X11333528Y-14056614D01*
X11633528Y-14056614D02*
X11633528Y-13856614D01*
X11633528Y-13913757D02*
X11647814Y-13885186D01*
X11662100Y-13870900D01*
X11690671Y-13856614D01*
X11719243Y-13856614D01*
X11819243Y-14056614D02*
X11819243Y-13856614D01*
X11819243Y-13756614D02*
X11804957Y-13770900D01*
X11819243Y-13785186D01*
X11833528Y-13770900D01*
X11819243Y-13756614D01*
X11819243Y-13785186D01*
X12004957Y-14056614D02*
X11976386Y-14042329D01*
X11962100Y-14013757D01*
X11962100Y-13756614D01*
X12162100Y-14056614D02*
X12133528Y-14042329D01*
X12119243Y-14013757D01*
X12119243Y-13756614D01*
X12504957Y-14056614D02*
X12504957Y-13756614D01*
X12604957Y-13970900D01*
X12704957Y-13756614D01*
X12704957Y-14056614D01*
X12976386Y-14056614D02*
X12976386Y-13899471D01*
X12962100Y-13870900D01*
X12933528Y-13856614D01*
X12876386Y-13856614D01*
X12847814Y-13870900D01*
X12976386Y-14042329D02*
X12947814Y-14056614D01*
X12876386Y-14056614D01*
X12847814Y-14042329D01*
X12833528Y-14013757D01*
X12833528Y-13985186D01*
X12847814Y-13956614D01*
X12876386Y-13942329D01*
X12947814Y-13942329D01*
X12976386Y-13928043D01*
X13119243Y-13856614D02*
X13119243Y-14156614D01*
X13119243Y-13870900D02*
X13147814Y-13856614D01*
X13204957Y-13856614D01*
X13233528Y-13870900D01*
X13247814Y-13885186D01*
X13262100Y-13913757D01*
X13262100Y-13999471D01*
X13247814Y-14028043D01*
X13233528Y-14042329D01*
X13204957Y-14056614D01*
X13147814Y-14056614D01*
X13119243Y-14042329D01*
X13390671Y-14028043D02*
X13404957Y-14042329D01*
X13390671Y-14056614D01*
X13376386Y-14042329D01*
X13390671Y-14028043D01*
X13390671Y-14056614D01*
X13390671Y-13870900D02*
X13404957Y-13885186D01*
X13390671Y-13899471D01*
X13376386Y-13885186D01*
X13390671Y-13870900D01*
X13390671Y-13899471D01*
M02*
