M48
; DRILL file {KiCad 5.1.10} date Sat Jul 31 20:31:46 2021
; FORMAT={-:-/ absolute / inch / decimal}
; #@! TF.CreationDate,2021-07-31T20:31:46-03:00
; #@! TF.GenerationSoftware,Kicad,Pcbnew,5.1.10
; #@! TF.FileFunction,Plated,1,2,PTH
FMAT,2
INCH
T1C0.0276
T2C0.0300
T3C0.0315
T4C0.0354
T5C0.0394
%
G90
G05
T1
X4.603Y-3.347
X4.803Y-3.347
X5.7061Y-2.5162
X5.728Y-4.522
X5.9061Y-2.5162
X5.928Y-4.522
X7.8521Y-4.5908
X7.8521Y-4.7908
T2
X5.628Y-3.972
X5.728Y-3.972
X5.828Y-3.972
X5.928Y-3.972
X6.028Y-3.972
X6.128Y-3.972
X6.228Y-3.972
X6.328Y-3.972
T3
X7.228Y-3.322
X7.228Y-4.222
X7.328Y-3.322
X7.328Y-4.222
X7.428Y-3.322
X7.428Y-4.222
X7.528Y-3.322
X7.528Y-4.222
X7.628Y-3.322
X7.628Y-4.222
X7.728Y-3.322
X7.728Y-4.222
X7.828Y-3.322
X7.828Y-4.222
X7.928Y-3.322
X7.928Y-4.222
X8.028Y-3.322
X8.028Y-4.222
X8.128Y-3.322
X8.128Y-4.222
X8.228Y-3.322
X8.228Y-4.222
X8.328Y-3.322
X8.328Y-4.222
X8.428Y-3.322
X8.428Y-4.222
X8.528Y-3.322
X8.528Y-4.222
X8.628Y-3.322
X8.628Y-4.222
X8.728Y-3.322
X8.728Y-4.222
X8.828Y-3.322
X8.928Y-3.322
X9.028Y-3.322
X9.128Y-3.322
T4
X8.4296Y-4.572
X8.528Y-4.572
X8.6264Y-4.572
X8.7248Y-4.572
X9.028Y-4.4486
X9.028Y-4.547
T5
X4.603Y-3.147
X4.703Y-3.147
X4.703Y-3.547
X4.703Y-3.647
X4.703Y-3.747
X4.803Y-3.147
X5.7044Y-2.6542
X5.728Y-4.672
X5.8044Y-2.6542
X5.828Y-4.672
X5.828Y-4.847
X5.9044Y-2.6542
X5.928Y-4.672
X5.928Y-4.847
X6.028Y-4.847
X6.328Y-2.447
X6.328Y-2.547
X6.328Y-2.647
X7.6213Y-4.6497
X7.6213Y-4.7497
X7.6213Y-4.8497
X8.103Y-4.522
X8.103Y-4.622
X8.103Y-4.722
X8.4284Y-3.0584
X8.5269Y-3.0584
X8.6253Y-3.0584
X8.7237Y-3.0584
T0
M30
